<svg xmlns="http://www.w3.org/2000/svg" width="34.875" height="34.875" viewBox="0 0 34.875 34.875">
  <path id="Icon_awesome-bowling-ball" data-name="Icon awesome-bowling-ball" d="M17.438.563A17.438,17.438,0,1,0,34.875,18,17.434,17.434,0,0,0,17.438.563Zm-9,12.938a2.25,2.25,0,1,1,2.25-2.25A2.248,2.248,0,0,1,8.438,13.5Zm4.5-6.75A2.25,2.25,0,1,1,15.188,9,2.248,2.248,0,0,1,12.938,6.75Zm3.375,10.125a2.25,2.25,0,1,1,2.25-2.25A2.248,2.248,0,0,1,16.313,16.875Z" transform="translate(0 -0.563)" fill="#3c3b3a"/>
</svg>