<svg xmlns="http://www.w3.org/2000/svg" width="33.964" height="33.964" viewBox="0 0 33.964 33.964">
  <path id="Icon_map-gym" data-name="Icon map-gym" d="M12.933,32.309a.725.725,0,0,1-.036,1.02l-1.564,1.462a.719.719,0,0,1-1.016-.037L1.21,24.939a.725.725,0,0,1,.037-1.02l1.566-1.46a.719.719,0,0,1,1.016.037ZM24.553,13.841a.725.725,0,0,1-.037,1.02l-9.842,9.194a.719.719,0,0,1-1.016-.037l-2.349-2.535a.725.725,0,0,1,.037-1.02l9.84-9.194a.718.718,0,0,1,1.015.037l2.352,2.535ZM16.281,29.179a.725.725,0,0,1-.037,1.02l-1.566,1.462a.719.719,0,0,1-1.016-.037l-9.1-9.815a.725.725,0,0,1,.036-1.02L6.16,19.328a.719.719,0,0,1,1.016.037ZM31.447,14.193a.725.725,0,0,1-.037,1.02l-1.565,1.462a.72.72,0,0,1-1.017-.036l-9.1-9.813a.724.724,0,0,1,.036-1.02l1.57-1.465a.718.718,0,0,1,1.015.037l9.1,9.816Zm3.344-3.125a.726.726,0,0,1-.037,1.02L33.191,13.55a.718.718,0,0,1-1.015-.036L23.074,3.7a.726.726,0,0,1,.036-1.02l1.564-1.464a.716.716,0,0,1,1.014.036Z" transform="translate(-1.018 -1.019)" fill="#3c3b3a"/>
</svg>