<svg xmlns="http://www.w3.org/2000/svg" width="34.875" height="34.875" viewBox="0 0 34.875 34.875">
  <path id="Icon_awesome-basketball-ball" data-name="Icon awesome-basketball-ball" d="M14.927.724A17.334,17.334,0,0,0,6.335,4.507l5.442,5.442A15.66,15.66,0,0,0,14.927.724Zm2.51,14.885,11.1-11.1A17.379,17.379,0,0,0,18.309.563a18.975,18.975,0,0,1-4.127,11.791ZM3.945,6.9A17.334,17.334,0,0,0,.162,15.49a15.644,15.644,0,0,0,9.225-3.15ZM23.084,21.255a19.029,19.029,0,0,1,11.791-4.127A17.379,17.379,0,0,0,30.93,6.9L19.828,18l3.255,3.255Zm-5.646-.865-11.1,11.1a17.425,17.425,0,0,0,10.23,3.945,19.029,19.029,0,0,1,4.127-11.791ZM30.93,29.1a17.334,17.334,0,0,0,3.783-8.592,15.722,15.722,0,0,0-9.225,3.15ZM11.791,14.745A18.933,18.933,0,0,1,0,18.872,17.379,17.379,0,0,0,3.945,29.1L15.047,18Zm8.156,20.531a17.334,17.334,0,0,0,8.592-3.783L23.1,26.051A15.739,15.739,0,0,0,19.948,35.276Z" transform="translate(0 -0.563)" fill="#3c3b3a"/>
</svg>